<?xml version="1.0" encoding="UTF-8"?>
<!DOCTYPE svg PUBLIC "-//W3C//DTD SVG 1.1//EN" "http://www.w3.org/Graphics/SVG/1.1/DTD/svg11.dtd">
<!-- Creator: CorelDRAW X8 -->
<svg xmlns="http://www.w3.org/2000/svg" xml:space="preserve" width="141px" height="26px" version="1.1" style="shape-rendering:geometricPrecision; text-rendering:geometricPrecision; image-rendering:optimizeQuality; fill-rule:evenodd; clip-rule:evenodd"
viewBox="0 0 113835 20980"
 xmlns:xlink="http://www.w3.org/1999/xlink">
 <defs>
  <style type="text/css">
   <![CDATA[
    .fil0 {fill:#F860A3}
    .fil2 {fill:#606062;fill-rule:nonzero}
    .fil1 {fill:#F860A3;fill-rule:nonzero}
   ]]>
  </style>
 </defs>
 <g id="Layer_x0020_1">
  <metadata id="CorelCorpID_0Corel-Layer"/>
  <path class="fil0" d="M3183 3852c-976,-228 -3346,-912 -3174,939 186,1996 3879,3192 4134,3540 -907,242 -1982,1331 -2562,2130 -1970,2719 -1470,6755 1496,8855 1970,1394 3838,1600 6825,1600 4435,0 8115,-1508 9935,-4143 1543,-2233 1943,-5633 662,-8268 -297,-611 -999,-1710 -1638,-1881 -378,253 -532,603 -808,1005 -1237,1805 -3992,2036 -6079,1616 -446,-89 -791,-239 -1219,-274 163,-608 704,-611 1329,-1658 2716,-4551 -2986,-9659 -7318,-6145 -611,496 -1502,1711 -1583,2684zm4525 9847c144,-317 333,-594 581,-700l170 -74c592,140 531,517 367,961 -337,914 -805,2095 35,3314 65,94 152,179 257,252 519,360 1460,446 2531,269 2369,-392 4076,-1283 4950,-3601 114,-304 197,-745 132,-1212 -222,-666 -527,-449 -1184,-408 -214,13 -435,27 -654,19l-308 -11 186 -246c127,-169 510,-324 943,-360 262,-22 550,-4 814,78 273,84 521,239 693,484 183,263 275,628 210,1120 -96,725 -414,1427 -842,2045l0 0c-498,720 -1146,1330 -1764,1734 -219,142 -435,272 -661,394 -227,123 -464,237 -716,347l0 -1c-544,236 -1164,453 -1808,605 -556,131 -1131,215 -1697,221 -398,4 -744,-41 -1044,-128 -636,-183 -1067,-550 -1341,-1017 -268,-459 -382,-1014 -389,-1586 -6,-549 86,-1114 234,-1626 71,-246 170,-576 305,-873zm-2017 -11797c-1611,581 -1103,3718 528,3120 1460,-534 1276,-3771 -528,-3120z"/>
  <path class="fil1" d="M41508 16039c192,0 376,-14 549,-39l0 0c175,-27 341,-66 497,-116l1 0c155,-50 303,-112 445,-185 135,-71 262,-152 378,-244 116,-91 218,-189 305,-293 89,-106 166,-220 231,-342l1 -1c62,-116 109,-240 140,-368 30,-127 46,-268 46,-421l0 -509 -209 -49c-184,-42 -384,-83 -600,-124 -196,-37 -415,-66 -653,-86 -235,-19 -490,-29 -761,-29 -385,0 -724,37 -1014,111 -275,70 -506,172 -693,305l0 1c-177,129 -308,273 -392,432l0 2c-82,156 -123,337 -123,543l0 35c0,208 44,396 133,560l-1 1c46,84 101,162 163,233 61,69 133,134 213,193l0 1c81,56 172,110 274,158l1 2c99,47 207,89 323,123l0 1c116,34 237,61 362,79l0 0c120,16 249,26 384,26zm-273 1971c-227,0 -457,-17 -689,-50 -231,-32 -458,-81 -680,-144 -228,-65 -447,-149 -654,-251l0 0c-206,-102 -400,-222 -580,-358 -187,-142 -353,-297 -497,-464 -145,-170 -275,-357 -387,-561 -116,-211 -203,-439 -261,-682 -56,-239 -84,-492 -84,-759 0,-279 21,-546 80,-820 55,-250 138,-485 249,-704 110,-215 244,-415 400,-596 157,-180 336,-343 537,-485 194,-139 408,-261 638,-367 233,-106 478,-194 732,-263 257,-70 528,-123 811,-157 281,-35 575,-52 879,-52 606,0 1137,37 1593,112 222,37 443,80 662,129l89 20c-20,-238 -65,-447 -135,-630 -92,-238 -230,-438 -414,-600l0 -1c-187,-166 -419,-292 -694,-378 -288,-90 -626,-136 -1013,-136 -256,0 -497,14 -723,41 -228,27 -442,68 -640,120 -204,54 -410,120 -616,196 -203,74 -406,159 -605,253l-426 202 -161 -444 -405 -1116 -134 -368 356 -167c260,-123 525,-234 794,-335 270,-100 539,-188 807,-263 283,-79 582,-137 896,-175 315,-37 649,-56 998,-56 692,0 1306,92 1843,275 553,189 1022,474 1404,857l1 -1c361,361 633,798 814,1307 176,494 264,1053 264,1676l0 5570 0 431 -430 0 -1340 0 -431 0 0 -431 0 -327c-192,150 -404,292 -632,426 -305,177 -645,310 -1019,397 -366,86 -767,129 -1197,129zm12092 -2078c381,0 743,-68 1083,-205 169,-68 327,-152 472,-249 143,-96 277,-210 401,-338 122,-127 233,-271 332,-429 101,-162 189,-340 264,-531 74,-189 131,-394 168,-613 38,-220 57,-458 57,-712l0 -35c0,-247 -19,-479 -57,-697l0 -2c-37,-215 -94,-419 -168,-608 -75,-193 -164,-371 -265,-531l-1 -2c-100,-160 -214,-306 -339,-436 -128,-133 -265,-250 -411,-350 -147,-101 -303,-188 -469,-258l-1 0c-163,-69 -336,-122 -516,-158 -177,-35 -361,-53 -550,-53 -186,0 -366,19 -536,53l0 1c-179,37 -352,92 -520,164 -167,73 -331,164 -487,270 -153,105 -299,227 -436,363l1 1c-136,136 -259,285 -365,446 -111,165 -206,342 -285,529 -78,184 -138,381 -178,589 -40,206 -60,428 -60,661l0 36c0,472 80,898 240,1278 80,192 175,370 283,532 108,162 229,309 361,440 136,132 282,252 438,357 158,107 321,197 488,269l0 -2c172,75 346,131 520,167l0 0c170,35 350,53 536,53zm247 2078c-464,0 -893,-60 -1286,-178 -186,-55 -371,-124 -553,-205 -183,-81 -352,-170 -503,-265 -259,-161 -499,-346 -718,-555l0 578 0 431 -431 0 -1357 0 -430 0 0 -431 0 -12867 0 -431 430 0 1357 0 431 0 0 431 0 4396c91,-91 186,-178 283,-259 140,-118 290,-228 447,-330l1 1c157,-101 323,-193 497,-275l0 -1c167,-78 350,-149 546,-213 198,-63 405,-111 618,-141l0 -1c215,-31 438,-47 668,-47 593,0 1179,117 1754,349 289,117 563,261 820,431 256,169 498,366 723,587 227,223 432,472 612,744l0 0c178,268 335,561 469,876 136,321 237,664 305,1026 67,364 101,745 101,1141l0 36c0,797 -135,1517 -404,2158 -133,317 -290,611 -467,882l-2 0c-182,278 -383,527 -602,745 -218,218 -457,415 -717,590 -257,172 -529,318 -815,437 -284,118 -577,207 -876,268 -302,61 -603,92 -901,92zm8266 2679c-199,0 -395,-11 -585,-32 -190,-22 -371,-54 -541,-97 -165,-41 -335,-94 -505,-158l0 0c-176,-66 -342,-139 -499,-217l-362 -181 159 -372 458 -1075 182 -427 411 215c97,51 194,95 289,132 92,35 184,65 275,87 180,43 402,65 665,65 305,0 559,-87 758,-262 109,-95 221,-236 336,-423 101,-162 203,-360 305,-590l-4062 -8903 -278 -609 668 0 1498 0 280 0 113 259 2896 6639 2551 -6622 106 -276 294 0 1445 0 639 0 -241 592 -3825 9412 -1 2c-204,495 -422,919 -652,1273 -240,370 -497,667 -770,889 -278,226 -587,396 -925,510 -337,112 -697,169 -1082,169z"/>
  <path class="fil1" d="M71015 17844l949 0 0 -5691c0,-1994 1394,-3542 3155,-3542 1762,0 2884,1258 2884,3310l0 5923 949 0 0 -5749c0,-2207 1452,-3484 3117,-3484 1819,0 2923,1238 2923,3368l0 5865 948 0 0 -5981c0,-2478 -1452,-4124 -3794,-4124 -1858,0 -2923,1026 -3562,2130 -542,-1142 -1606,-2130 -3329,-2130 -1762,0 -2652,968 -3291,1994l0 -1761 -949 0 0 9872zm17545 -12447l1181 0 0 -1297 -1181 0 0 1297zm117 12447l948 0 0 -9872 -948 0 0 9872zm8136 3136c1452,0 2730,-465 3582,-1316 793,-793 1258,-1916 1258,-3349l0 -8343 -949 0 0 1974c-813,-1161 -2148,-2207 -4123,-2207 -2381,0 -4743,1840 -4743,4685l0 39c0,2825 2362,4646 4743,4646 1955,0 3271,-1065 4123,-2284l0 1432c0,2535 -1607,3833 -3871,3833 -1452,0 -2807,-484 -3988,-1394l-561 774c1354,1007 2884,1510 4529,1510zm-135 -4781c-2033,0 -3814,-1549 -3814,-3775l0 -39c0,-2303 1742,-3736 3814,-3736 2052,0 4084,1472 4084,3756l0 38c0,2245 -2032,3756 -4084,3756zm12066 1877c2942,0 5091,-2400 5091,-5168l0 -39c0,-2768 -2129,-5130 -5052,-5130 -2942,0 -5091,2403 -5091,5169l0 39c0,2765 2129,5129 5052,5129zm39 -890c-2284,0 -4065,-1897 -4065,-4278l0 -39c0,-2323 1684,-4239 4026,-4239 2284,0 4065,1900 4065,4278l0 39c0,2320 -1684,4239 -4026,4239z"/>
  <path class="fil1" d="M31130 15932c381,0 743,-68 1083,-205 169,-68 327,-152 472,-249 144,-96 277,-210 401,-338 122,-127 233,-271 332,-429 101,-162 190,-340 265,-531 74,-189 130,-394 167,-613 38,-220 58,-458 58,-712l0 -35c0,-247 -20,-479 -58,-697l0 -2c-37,-215 -93,-419 -167,-608 -76,-193 -165,-371 -265,-531l-2 -2c-100,-160 -214,-306 -339,-436 -127,-133 -265,-250 -411,-350 -147,-101 -303,-188 -468,-258l-2 0c-163,-69 -336,-122 -516,-158 -177,-35 -360,-53 -550,-53 -186,0 -365,19 -536,53l0 1c-178,37 -352,92 -519,164 -168,73 -332,164 -487,270 -154,105 -300,227 -437,363l1 1c-136,136 -258,285 -365,446 -110,165 -206,342 -285,529 -78,184 -138,381 -178,589 -40,206 -60,428 -60,661l0 36c0,472 80,898 240,1278 80,192 175,370 283,532 108,162 229,309 361,440 136,132 282,252 438,357 158,107 321,197 488,269l1 -2c171,75 346,131 519,167l0 0c171,35 350,53 536,53zm247 2078c-464,0 -893,-60 -1286,-178 -186,-55 -371,-124 -553,-205 -183,-81 -352,-170 -503,-265 -259,-161 -498,-346 -718,-555l0 578 0 431 -430 0 -1357 0 -431 0 0 -431 0 -12867 0 -431 431 0 1357 0 430 0 0 431 0 4396c92,-91 186,-178 284,-259 140,-118 289,-228 446,-330l1 1c157,-101 323,-193 497,-275l0 -1c167,-78 351,-149 546,-213 198,-63 405,-111 618,-141l0 -1c215,-31 438,-47 668,-47 593,0 1179,117 1755,349 289,117 562,261 819,431 257,169 498,366 723,587 227,223 432,472 612,744l0 0c179,268 335,561 469,876 136,321 238,664 305,1026 67,364 101,745 101,1141 0,760 -109,1490 -404,2194 -133,317 -289,611 -467,882l-2 0c-182,278 -383,527 -601,745 -218,218 -458,415 -718,590 -257,172 -529,318 -815,437 -284,118 -576,207 -876,268 -301,61 -602,92 -901,92z"/>
  <path class="fil2" d="M5088 3363c-221,1087 450,1958 1223,1246 385,-355 733,-1550 -215,-1973 -57,357 -185,900 -1008,727z"/>
 </g>
</svg>
